<?xml version="1.0" standalone="no"?>
<!DOCTYPE svg PUBLIC "-//W3C//DTD SVG 20010904//EN"
 "http://www.w3.org/TR/2001/REC-SVG-20010904/DTD/svg10.dtd">
<svg version="1.0" xmlns="http://www.w3.org/2000/svg"
 width="337.000000pt" height="337.000000pt" viewBox="0 0 337.000000 337.000000"
 preserveAspectRatio="xMidYMid meet">
<metadata>
Created by potrace 1.14, written by Peter Selinger 2001-2017
</metadata>
<g transform="translate(0.000000,337.000000) scale(0.100000,-0.100000)"
fill="#000000" stroke="none">
<path d="M1509 2835 c-2 -1 -24 -6 -49 -9 -124 -17 -247 -65 -173 -67 99 -3
257 -50 428 -129 41 -19 193 -113 230 -142 73 -58 135 -117 204 -194 l44 -49
-84 -5 c-139 -8 -162 -2 -200 50 -30 41 -162 180 -172 180 -2 0 22 -51 53
-114 97 -193 103 -223 105 -491 1 -163 5 -237 14 -253 7 -13 11 -38 9 -55 -3
-31 -4 -32 -63 -37 l-60 -5 -3 -126 c-2 -105 0 -128 12 -132 20 -8 27 5 28 53
0 32 4 40 19 40 23 0 23 2 -1 -62 -86 -225 -250 -451 -424 -586 -16 -12 -27
-24 -25 -26 2 -2 31 -8 64 -14 88 -15 285 -12 374 7 l76 16 48 70 c62 91 112
188 152 300 30 83 51 169 47 188 -1 4 3 7 8 7 6 0 15 11 20 25 11 29 31 34 23
6 -8 -33 25 -34 42 -1 9 17 19 31 23 31 42 7 112 2 112 -7 0 -22 34 -54 48
-46 11 7 9 19 -7 62 -12 31 -17 58 -12 64 5 6 7 20 5 31 -8 42 5 65 37 65 l30
0 -2 -132 c-2 -117 -14 -225 -34 -307 l-7 -26 26 24 c62 58 153 217 197 346
l28 80 1 -97 c0 -114 2 -116 95 -114 70 2 92 11 74 32 -7 9 -31 14 -65 14
l-54 0 0 35 0 35 49 0 c84 0 81 40 -3 43 -45 1 -46 2 -46 34 l0 33 59 0 c41 0
60 4 64 14 9 23 -2 26 -86 26 -68 0 -78 2 -73 16 3 9 6 26 6 39 0 15 7 25 23
29 35 9 96 64 112 101 52 127 -7 267 -123 291 -8 1 -15 4 -17 6 -2 2 27 39 66
82 108 123 92 156 -72 156 -95 0 -96 0 -108 28 -49 107 -202 281 -322 365 -65
46 -211 127 -228 127 -5 0 -26 7 -47 16 -22 9 -40 16 -41 16 -2 0 -17 4 -35 9
-83 24 -183 37 -294 37 -67 1 -123 -1 -125 -3z m916 -1030 c13 -44 31 -116 40
-160 8 -44 18 -90 20 -101 4 -17 -1 -23 -20 -26 -25 -5 -36 14 -16 26 5 4 8
14 6 24 -2 9 -4 22 -4 29 -1 19 -74 35 -106 23 -44 -17 -47 -11 -11 20 41 36
58 82 58 150 -1 60 -21 101 -67 135 l-34 27 27 23 27 24 27 -57 c15 -31 39
-93 53 -137z m340 -5 c2 -23 -20 -80 -30 -80 -3 0 -5 37 -5 83 1 81 1 82 17
52 9 -16 17 -41 18 -55z m-870 -363 c-10 -34 -17 -41 -36 -41 -21 0 -24 4 -25
41 0 42 0 42 36 41 l37 0 -12 -41z"/>
<path d="M1124 2713 c-234 -122 -466 -382 -515 -578 l-12 -47 -23 68 c-13 37
-24 68 -24 70 0 1 -10 4 -23 8 -34 8 -63 -3 -75 -30 -10 -20 0 -56 59 -231 39
-115 82 -243 97 -286 20 -62 31 -81 50 -88 37 -14 66 11 97 80 24 53 30 59 49
52 25 -9 68 -6 108 8 29 10 30 9 54 -45 13 -30 24 -57 24 -60 0 -3 7 -12 16
-21 19 -19 61 -20 79 -2 24 24 203 563 194 585 -21 59 -98 55 -114 -6 -7 -28
-48 -141 -50 -138 -1 2 -5 24 -7 50 -7 64 -51 151 -100 192 -51 44 -128 64
-193 49 -59 -13 -49 -2 31 37 327 158 572 -192 435 -621 -38 -118 -125 -266
-147 -248 -23 19 -44 3 -44 -35 0 -25 -6 -38 -20 -46 -29 -16 -39 -5 -38 41 0
47 -7 57 -30 43 -13 -9 -17 -26 -17 -79 0 -55 -4 -70 -20 -81 -19 -14 -20 -13
-26 39 -7 64 -31 101 -79 121 -92 37 -187 -38 -177 -142 3 -32 1 -42 -9 -38
-7 3 -15 -4 -17 -17 -3 -14 -5 -8 -6 14 0 21 -9 43 -20 53 -17 15 -18 20 -6
43 14 27 5 70 -18 85 -16 10 -157 10 -158 1 -1 -5 -3 -59 -4 -121 -1 -83 1
-117 11 -127 12 -11 51 -13 141 -6 6 1 19 8 27 16 14 14 17 12 31 -21 50 -119
192 -288 336 -397 l36 -27 69 36 c37 20 95 54 128 77 73 49 239 210 281 272
17 26 36 43 43 40 16 -6 30 30 27 68 -3 28 -2 28 48 25 49 -3 52 -4 58 -36 4
-19 12 -39 18 -45 25 -25 56 -8 41 22 -33 68 -39 90 -26 101 33 26 16 112 -24
125 -15 5 -15 10 -6 40 6 19 18 35 26 36 53 2 80 21 80 54 0 26 -29 55 -54 55
-15 0 -17 6 -12 38 19 117 23 279 8 352 -7 32 -5 36 23 50 17 8 31 24 33 37 4
28 -31 63 -63 63 -16 0 -28 7 -31 18 -63 199 -198 356 -386 446 -101 48 -109
49 -184 9z m-546 -1247 c30 -18 2 -48 -47 -49 -38 -2 -41 0 -41 24 0 14 2 28
5 31 8 7 68 3 83 -6z m273 1 c40 -30 51 -96 23 -135 -15 -22 -39 -24 -115 -13
-9 2 -29 50 -29 72 0 28 30 77 49 82 30 9 56 6 72 -6z m823 -29 c2 -35 -8 -48
-37 -48 -13 0 -15 4 -8 18 5 9 14 30 20 46 14 34 24 28 25 -16z m-1077 -82 c3
-3 3 -16 -1 -29 -4 -19 -14 -26 -38 -29 -57 -6 -68 0 -68 37 0 24 5 35 18 37
18 4 80 -7 89 -16z"/>
</g>
</svg>
